<svg width="248" height="44" viewBox="0 0 248 44" fill="none" xmlns="http://www.w3.org/2000/svg">
<path d="M58.7416 18.59H57.4766V17.985C58.6866 17.985 60.5016 16.06 60.5016 13.64H61.1066V17.985H63.9116V18.59H61.1066V32.34C61.1066 34.485 61.8766 34.815 62.5366 34.815C63.0316 34.815 63.3616 34.54 63.3616 34.54L63.5266 34.87C63.3616 35.2 58.6316 36.08 58.6316 32.56L58.7416 18.59Z" fill="white"/>
<path d="M82.39 24.8601H68.75C68.64 25.1351 68.64 25.3001 68.64 25.5201C68.64 36.6851 78.045 36.1901 81.345 31.7901L81.675 32.0651C81.675 32.0651 79.64 35.5301 74.305 35.5301C69.41 35.5301 66 31.7901 66 26.4551C66 21.4501 69.41 17.545 74.8 17.545C77.275 17.545 82.335 19.14 82.335 24.4201L82.39 24.8601ZM68.75 24.3651H79.915C79.915 20.625 77.715 17.9851 74.305 17.9851C71.555 18.0401 69.245 20.845 68.75 24.3651Z" fill="white"/>
<path d="M86.35 22.44C86.35 21.01 85.25 19.745 85.25 19.745L88.715 18.04V21.45C88.715 21.45 89.375 17.655 93.225 17.655C97.02 17.655 97.46 20.295 97.46 20.295H94.985C94.985 20.295 94.38 18.59 92.675 18.7C90.2 18.81 88.715 21.395 88.715 24.035V32.3951C88.715 33.7701 89.815 35.0901 89.815 35.0901H85.25C85.25 35.0901 86.35 33.7151 86.35 32.3951V22.44Z" fill="white"/>
<path d="M114.729 24.8601H101.089C101.089 25.1351 101.089 25.3001 101.089 25.5201C101.089 36.6851 110.494 36.1901 113.794 31.7901L114.124 32.0651C114.124 32.0651 112.089 35.5301 106.754 35.5301C101.859 35.5301 98.4492 31.7901 98.4492 26.4551C98.4492 21.4501 101.859 17.545 107.249 17.545C109.724 17.545 114.784 19.14 114.784 24.4201L114.729 24.8601ZM101.089 24.3651H112.254C112.254 20.625 110.054 17.9851 106.644 17.9851C104.004 18.0401 101.529 20.845 101.089 24.3651Z" fill="white"/>
<path d="M128.812 31.3501C128.812 27.6101 117.372 27.4451 117.372 22.3851C117.372 18.9751 120.782 17.545 123.477 17.545C128.207 17.545 129.857 19.9101 129.857 19.9101L128.427 21.7801C128.427 21.7801 128.262 17.875 123.092 18.04C121.167 18.15 119.022 19.14 119.022 21.34C119.022 25.4101 130.902 24.9151 130.902 30.0851C130.902 34.4851 126.392 35.5851 123.697 35.5851C118.692 35.5851 117.262 33.0551 117.262 33.0551L118.802 31.1301C118.802 31.1301 119.462 35.2551 124.137 35.0901C126.612 34.9801 128.812 33.9351 128.812 31.3501Z" fill="white"/>
<path d="M133.484 31.35C133.484 25.905 144.264 24.255 144.264 24.255C144.264 20.35 143.934 17.985 140.634 18.095C138.269 18.095 137.609 20.295 137.609 20.295H135.134C135.134 20.295 135.959 17.655 141.129 17.655C145.364 17.655 146.629 19.36 146.629 23.76V32.5051C146.629 33.8801 147.839 35.2001 147.839 35.2001H144.374V33.2751C144.374 33.2751 141.734 35.7501 138.599 35.7501C135.849 35.4751 133.484 34.2651 133.484 31.35ZM144.374 24.695C144.374 24.695 136.234 26.73 136.234 31.24C136.234 37.1801 142.779 34.2101 144.374 32.4501V24.695Z" fill="white"/>
<path d="M161.921 22.44C161.921 21.01 160.711 19.745 160.711 19.745L164.176 18.04V20.845C164.176 20.845 166.046 17.6 170.556 17.6C175.451 17.6 178.861 21.56 178.861 26.565C178.861 31.57 175.451 35.53 169.786 35.53C166.211 35.53 164.121 33.055 164.121 33.055V41.195C164.121 42.625 165.331 44.0001 165.331 44.0001H160.656C160.656 44.0001 161.866 42.625 161.866 41.195L161.921 22.44ZM164.286 21.945V28.71C164.286 32.835 167.256 34.98 170.721 34.87C174.351 34.76 176.661 31.13 176.331 26.565C176.001 22 173.691 18.095 169.951 18.205C165.991 18.26 164.286 21.945 164.286 21.945Z" fill="white"/>
<path d="M198.167 24.8601H184.637C184.527 25.1351 184.527 25.3001 184.527 25.5201C184.527 36.6851 193.932 36.1901 197.232 31.7901L197.562 32.0651C197.562 32.0651 195.527 35.5301 190.192 35.5301C185.297 35.5301 181.887 31.7901 181.887 26.4551C181.887 21.4501 185.297 17.545 190.687 17.545C193.217 17.545 198.222 19.14 198.222 24.4201L198.167 24.8601ZM184.637 24.3651H195.802C195.802 20.625 193.602 17.9851 190.192 17.9851C187.332 18.0401 185.077 20.845 184.637 24.3651Z" fill="white"/>
<path d="M202.237 22.44C202.237 21.01 201.137 19.745 201.137 19.745L204.602 18.04V21.45C204.602 21.45 205.262 17.655 209.112 17.655C212.852 17.655 213.347 20.295 213.347 20.295H210.872C210.872 20.295 210.267 18.59 208.562 18.7C206.087 18.81 204.602 21.395 204.602 24.035V32.3951C204.602 33.7701 205.702 35.0901 205.702 35.0901H201.137C201.137 35.0901 202.237 33.7151 202.237 32.3951V22.44Z" fill="white"/>
<path d="M230.562 24.8601H216.922C216.812 25.1351 216.812 25.3001 216.812 25.5201C216.812 36.6851 226.217 36.1901 229.517 31.7901L229.847 32.0651C229.847 32.0651 227.812 35.5301 222.477 35.5301C217.582 35.5301 214.172 31.7901 214.172 26.4551C214.172 21.4501 217.582 17.545 223.082 17.545C225.612 17.545 230.617 19.14 230.617 24.4201L230.562 24.8601ZM216.977 24.3651H228.142C228.142 20.625 225.942 17.9851 222.532 17.9851C219.782 18.0401 217.417 20.845 216.977 24.3651Z" fill="white"/>
<path d="M247.171 18.0401V18.5351L235.676 34.5401H242.276C245.741 34.5401 246.951 32.1751 246.951 32.1751L246.621 35.0351H232.816V34.5401L244.256 18.5351H236.776C234.906 18.5351 233.751 20.1301 233.751 20.1301L234.026 17.7651C234.026 17.7651 235.291 18.0401 236.721 18.0401H247.171Z" fill="white"/>
<path d="M28.2706 13.97C23.5406 13.97 21.5056 17.435 21.5056 17.435L21.6156 14.465L18.2056 15.4C18.2056 15.4 19.1406 17.16 19.0306 19.195V39.27C19.0306 40.81 17.7656 42.24 17.7656 42.24H22.6606C22.6606 42.24 21.3956 40.81 21.3956 39.27V30.58C21.3956 30.58 23.7056 33.11 27.3906 33.11C33.3857 33.11 37.0707 28.875 37.0707 23.54C37.1257 18.205 33.4407 13.97 28.2706 13.97ZM28.2706 32.505C24.6406 32.505 21.3956 30.305 21.3956 25.905V18.7C21.3956 18.7 23.1556 14.795 27.3906 14.74C31.3507 14.63 33.8257 18.7 34.1557 23.65C34.5957 28.545 32.1207 32.505 28.2706 32.505Z" fill="white"/>
<path d="M11.825 16.775L11.715 32.1201C11.715 34.5951 12.54 34.9251 13.42 34.9251C13.915 34.9251 14.41 34.6501 14.41 34.6501L14.685 35.0901C14.41 35.4201 9.18502 36.4651 9.18502 32.4501V17.325L11.825 16.775ZM47.0801 0C38.4451 9.29502 17.49 14.08 11.66 15.235V11.11H11.055C11.055 13.64 9.18502 15.675 7.75502 16.005C7.64502 16.005 7.64501 16.005 7.59001 16.005C7.59001 16.005 7.59002 16.005 7.48001 16.005C2.75001 16.995 0 18.205 0 18.315L0.275001 18.92C0.275001 18.92 3.90501 17.325 10.12 16.225C10.23 16.225 16.885 15.015 24.8601 12.485C38.1701 8.25002 44.4401 3.575 47.4101 0.439994C47.5751 0.384994 47.0801 0 47.0801 0Z" fill="white"/>
</svg>
